<svg width="327" height="261" viewBox="0 0 327 261" fill="none" xmlns="http://www.w3.org/2000/svg">
<path d="M249.534 17.3165C249.534 17.802 249.231 18.2394 248.76 18.4143L241.507 21.1043C238.956 22.0535 236.953 24.0261 236.017 26.5193L233.258 33.8675C233.24 33.9244 233.195 33.9637 233.168 34.0118C233.145 34.0512 233.122 34.0906 233.091 34.1299C233.046 34.1868 233 34.2393 232.946 34.283C232.86 34.3574 232.77 34.4186 232.666 34.4667C232.598 34.4886 232.535 34.5148 232.467 34.5236C232.399 34.5411 232.336 34.5455 232.268 34.5455L232.055 34.5236C231.987 34.5148 231.924 34.493 231.856 34.4667C231.748 34.423 231.653 34.3574 231.567 34.2786C231.513 34.2349 231.472 34.1824 231.427 34.1299C231.404 34.0993 231.381 34.0643 231.359 34.0293C231.323 33.9725 231.277 33.9287 231.255 33.8675L228.496 26.5193C227.565 24.0261 225.566 22.0535 223.015 21.1043L215.771 18.4143C215.3 18.2394 214.988 17.802 214.988 17.3165C214.988 16.8091 215.332 16.3542 215.834 16.2011L222.468 14.1803C225.34 13.3056 227.605 11.1536 228.578 8.40236L231.277 0.68671C231.309 0.599231 231.35 0.5205 231.4 0.446143C231.431 0.398029 231.467 0.349916 231.513 0.31055C231.612 0.205576 231.734 0.126845 231.883 0.0699832C231.924 0.0524874 231.974 0.0393655 232.024 0.0306176C232.096 0.0087479 232.182 0 232.263 0C232.345 0 232.426 0.0087479 232.503 0.0306176C232.553 0.0393655 232.602 0.0524874 232.643 0.0699832C232.774 0.118097 232.892 0.196828 232.987 0.284307C233.028 0.323672 233.059 0.363038 233.095 0.402403C233.163 0.489882 233.217 0.577361 233.254 0.682336L235.953 8.39798C236.917 11.1536 239.187 13.3012 242.054 14.176L248.688 16.1967C249.199 16.3498 249.534 16.8003 249.534 17.3121V17.3165Z" fill="#0B44FF"/>
<path d="M249.534 103.636C249.534 92.2949 247.3 81.0645 242.96 70.5864C238.62 60.1083 232.258 50.5876 224.239 42.568C216.219 34.5484 206.698 28.1869 196.22 23.8467C185.742 19.5066 174.512 17.2727 163.17 17.2727C151.829 17.2727 140.598 19.5066 130.12 23.8467C119.642 28.1869 110.122 34.5484 102.102 42.568C94.0824 50.5876 87.7209 60.1083 83.3807 70.5864C79.0405 81.0645 76.8066 92.2949 76.8066 103.636H111.352C111.352 96.8315 112.692 90.0933 115.297 83.8064C117.901 77.5195 121.718 71.8071 126.529 66.9954C131.341 62.1836 137.053 58.3667 143.34 55.7626C149.627 53.1585 156.365 51.8182 163.17 51.8182C169.975 51.8182 176.713 53.1585 183 55.7626C189.287 58.3667 195 62.1836 199.811 66.9954C204.623 71.8071 208.44 77.5195 211.044 83.8064C213.648 90.0933 214.988 96.8315 214.988 103.636H249.534Z" fill="#0B44FF"/>
<rect x="163.17" y="103.636" width="34.5455" height="51.8182" transform="rotate(90 163.17 103.636)" fill="#0B44FF"/>
<rect x="214.988" y="138.182" width="34.5455" height="51.8182" transform="rotate(90 214.988 138.182)" fill="#0B44FF"/>
<path d="M326.341 259H312.903L302.708 240.797L298.099 245.602V259H287.161V201.617H298.099V232.633L311.966 216.617H325.755L310.872 232.906L326.341 259Z" fill="#0B44FF"/>
<path d="M260.011 224.664C256.235 224.664 253.644 226.266 252.237 229.469C251.508 231.161 251.144 233.323 251.144 235.953V259H240.05V216.5H250.792V222.711C252.224 220.523 253.578 218.948 254.854 217.984C257.146 216.266 260.05 215.406 263.565 215.406C267.966 215.406 271.56 216.565 274.347 218.883C277.159 221.174 278.565 224.99 278.565 230.328V259H267.159V233.102C267.159 230.862 266.86 229.143 266.261 227.945C265.167 225.758 263.084 224.664 260.011 224.664Z" fill="#0B44FF"/>
<path d="M230.751 216.422V259H219.462V216.422H230.751Z" fill="#0B44FF"/>
<path d="M211.141 226.695C206.661 226.695 203.654 228.154 202.117 231.07C201.258 232.711 200.828 235.237 200.828 238.648V259H189.617V216.422H200.242V223.844C201.961 221.005 203.458 219.065 204.734 218.023C206.818 216.279 209.526 215.406 212.859 215.406C213.068 215.406 213.237 215.419 213.367 215.445C213.523 215.445 213.849 215.458 214.344 215.484V226.891C213.641 226.812 213.016 226.76 212.469 226.734C211.922 226.708 211.479 226.695 211.141 226.695Z" fill="#0B44FF"/>
<path d="M183.249 246.5C182.962 249.026 181.647 251.591 179.303 254.195C175.657 258.336 170.553 260.406 163.991 260.406C158.574 260.406 153.795 258.661 149.655 255.172C145.514 251.682 143.444 246.005 143.444 238.141C143.444 230.771 145.306 225.12 149.03 221.188C152.78 217.255 157.637 215.289 163.6 215.289C167.142 215.289 170.332 215.953 173.17 217.281C176.009 218.609 178.353 220.706 180.202 223.57C181.868 226.096 182.949 229.026 183.444 232.359C183.73 234.312 183.847 237.125 183.795 240.797H154.655C154.811 245.068 156.152 248.062 158.678 249.781C160.215 250.849 162.064 251.383 164.225 251.383C166.517 251.383 168.379 250.732 169.811 249.43C170.592 248.727 171.282 247.75 171.881 246.5H183.249ZM172.233 233.453C172.051 230.51 171.152 228.284 169.538 226.773C167.949 225.237 165.97 224.469 163.6 224.469C161.022 224.469 159.017 225.276 157.584 226.891C156.178 228.505 155.293 230.693 154.928 233.453H172.233Z" fill="#0B44FF"/>
<path d="M126.372 201.422H137.505V259H126.372V201.422Z" fill="#0B44FF"/>
<path d="M105.706 201.422H116.839V259H105.706V201.422Z" fill="#0B44FF"/>
<path d="M64.1421 221.031C67.0848 217.281 72.1369 215.406 79.2983 215.406C83.9598 215.406 88.1004 216.331 91.7202 218.18C95.34 220.029 97.1499 223.518 97.1499 228.648V248.18C97.1499 249.534 97.1759 251.174 97.228 253.102C97.3062 254.56 97.5275 255.549 97.8921 256.07C98.2567 256.591 98.8035 257.021 99.5327 257.359V259H87.4233C87.0848 258.141 86.8504 257.333 86.7202 256.578C86.59 255.823 86.4858 254.964 86.4077 254C84.8713 255.667 83.1004 257.086 81.0952 258.258C78.6994 259.638 75.991 260.328 72.9702 260.328C69.116 260.328 65.9259 259.234 63.3999 257.047C60.8999 254.833 59.6499 251.708 59.6499 247.672C59.6499 242.438 61.6681 238.648 65.7046 236.305C67.9181 235.029 71.1733 234.117 75.4702 233.57L79.2593 233.102C81.3166 232.841 82.7879 232.516 83.6733 232.125C85.2619 231.448 86.0562 230.393 86.0562 228.961C86.0562 227.216 85.4442 226.018 84.2202 225.367C83.0223 224.69 81.2515 224.352 78.9077 224.352C76.2775 224.352 74.4155 225.003 73.3218 226.305C72.5405 227.268 72.0197 228.57 71.7593 230.211H61.0171C61.2515 226.487 62.2931 223.427 64.1421 221.031ZM72.4233 250.953C73.465 251.812 74.741 252.242 76.2515 252.242C78.6473 252.242 80.8478 251.539 82.853 250.133C84.8843 248.727 85.939 246.161 86.0171 242.438V238.297C85.314 238.74 84.5978 239.104 83.8687 239.391C83.1655 239.651 82.189 239.898 80.939 240.133L78.439 240.602C76.0952 241.018 74.4155 241.526 73.3999 242.125C71.6812 243.141 70.8218 244.716 70.8218 246.852C70.8218 248.753 71.3556 250.12 72.4233 250.953Z" fill="#0B44FF"/>
<path d="M38.0859 257.594C34.9089 259.547 31.0026 260.523 26.3672 260.523C18.737 260.523 12.487 257.88 7.61719 252.594C2.53906 247.281 0 240.016 0 230.797C0 221.474 2.5651 214 7.69531 208.375C12.8255 202.75 19.6094 199.938 28.0469 199.938C35.3646 199.938 41.237 201.799 45.6641 205.523C50.1172 209.221 52.6693 213.844 53.3203 219.391H41.4844C40.5729 215.458 38.3464 212.711 34.8047 211.148C32.8255 210.289 30.625 209.859 28.2031 209.859C23.5677 209.859 19.7526 211.617 16.7578 215.133C13.7891 218.622 12.3047 223.883 12.3047 230.914C12.3047 237.997 13.9193 243.01 17.1484 245.953C20.3776 248.896 24.0495 250.367 28.1641 250.367C32.2005 250.367 35.5078 249.208 38.0859 246.891C40.6641 244.547 42.2526 241.487 42.8516 237.711H29.5312V228.102H53.5156V259H45.5469L44.3359 251.812C42.0182 254.547 39.9349 256.474 38.0859 257.594Z" fill="#0B44FF"/>
<path d="M234.68 205.025C234.68 205.306 234.504 205.56 234.232 205.661L230.032 207.218C228.556 207.768 227.396 208.91 226.854 210.353L225.257 214.607C225.247 214.64 225.22 214.663 225.205 214.691C225.192 214.714 225.178 214.737 225.16 214.759C225.134 214.792 225.108 214.823 225.076 214.848C225.027 214.891 224.974 214.927 224.914 214.954C224.875 214.967 224.838 214.982 224.799 214.987C224.76 214.997 224.723 215 224.684 215L224.561 214.987C224.521 214.982 224.485 214.97 224.445 214.954C224.383 214.929 224.328 214.891 224.278 214.846C224.246 214.82 224.223 214.79 224.197 214.759C224.184 214.742 224.17 214.721 224.157 214.701C224.136 214.668 224.11 214.643 224.097 214.607L222.5 210.353C221.961 208.91 220.804 207.768 219.327 207.218L215.133 205.661C214.86 205.56 214.68 205.306 214.68 205.025C214.68 204.732 214.879 204.468 215.169 204.38L219.01 203.21C220.673 202.703 221.984 201.457 222.547 199.865L224.11 195.398C224.129 195.347 224.152 195.301 224.181 195.258C224.199 195.23 224.22 195.203 224.246 195.18C224.304 195.119 224.375 195.073 224.461 195.041C224.485 195.03 224.513 195.023 224.542 195.018C224.584 195.005 224.634 195 224.681 195C224.728 195 224.775 195.005 224.82 195.018C224.849 195.023 224.877 195.03 224.901 195.041C224.977 195.068 225.045 195.114 225.1 195.165C225.123 195.187 225.142 195.21 225.163 195.233C225.202 195.284 225.233 195.334 225.254 195.395L226.817 199.862C227.375 201.457 228.689 202.701 230.349 203.207L234.19 204.377C234.486 204.466 234.68 204.727 234.68 205.023V205.025Z" fill="#0B44FF"/>
</svg>
